<?xml version="1.0" standalone="no"?>
<!DOCTYPE svg PUBLIC "-//W3C//DTD SVG 1.1//EN" "http://www.w3.org/Graphics/SVG/1.1/DTD/svg11.dtd" >
<svg>
<font id="Flectar-Regular" horiz-adv-x="50" >
<font-face units-per-em="100" ascent="80" descent="-20" />
<glyph unicode=" " horiz-adv-x="50" d="" />
<glyph unicode="!" horiz-adv-x="50" d="M18 19.8 L18 66 L18 66 L24 66 L24 19.8 C22 19.8 20 19.8 18 19.8 zM24 6 L24 0 L18 0 L18 6 C20 6 22 6 24 6 z" />
<glyph unicode="&#x26;" horiz-adv-x="50" d="M22.2 36 L42 36 L42 19.8 L36 19.8 L36 30 C30 30 24 30 18 30 C11.37258 30 6 24.62742 6 18 C6 11.37258 11.37258 6 18 6 L42 6 L42 0 C34 0 26 0 18 0 C9.73433 0.0225 2.80433 5.3539 0.66332 13.33751 C-1.47769 21.32111 1.85473 29.40465 9 33.56 C2.48333 38.32135 -0.0986 46.32825 2.40898 53.99958 C4.91656 61.67092 11.72923 66.60694 19.8 66.6 C20.6 66.6 21.4 66.6 22.2 66.6 C27.2519 66.59449 31.56197 64.80644 35.13421 61.23421 C38.70644 57.66197 40.49449 53.3519 40.5 48.3 L40.5 46.2 L34.5 46.2 C34.5 46.9 34.5 47.6 34.5 48.3 C34.49449 51.69504 33.29223 54.59091 30.89157 56.99157 C28.49091 59.39223 25.59504 60.59449 22.2 60.6 C21.4 60.6 20.6 60.6 19.8 60.6 C13.0069 60.6 7.5 55.0931 7.5 48.3 C7.5 41.5069 13.0069 36 19.8 36 C20.6 36 21.4 36 22.2 36 z" />
<glyph unicode="," horiz-adv-x="50" d="M12.26505 -1.49361 L25.50916 11.7505 L29.7518 7.50786 L16.50769 -5.73625 L12.26505 -1.49361 z" />
<glyph unicode="-" horiz-adv-x="50" d="M0 36 L42 36 L42 30 L0 30 L0 36 z" />
<glyph unicode="." horiz-adv-x="50" d="M18 6 L24 6 L24 0 L18 0 L18 6 z" />
<glyph unicode="0" horiz-adv-x="50" d="M21.6 66.6 C27.2318 66.59449 32.03685 64.60141 36.01913 60.61913 C40.00141 56.63685 41.99449 51.8318 42 46.2 C42 37.4 42 28.6 42 19.8 C41.99449 14.1682 40.00141 9.36315 36.01913 5.38087 C32.03685 1.39859 27.2318 -0.59449 21.6 -0.6 C21.2 -0.6 20.8 -0.6 20.4 -0.6 C14.7682 -0.59449 9.96315 1.39859 5.98087 5.38087 C1.99859 9.36315 0.00551 14.1682 0 19.8 C0 28.6 0 37.4 0 46.2 C0.00551 51.8318 1.99859 56.63685 5.98087 60.61913 C9.96315 64.60141 14.7682 66.59449 20.4 66.6 C20.8 66.6 21.2 66.6 21.6 66.6 zM6 46.2 C6 37.4 6 28.6 6 19.8 C6.00219 18.92032 6.06932 18.17719 6.22482 17.31136 C6.38032 16.44552 6.57596 15.72547 6.88 14.9 C15.07 28.82667 23.26 42.75333 31.45 56.68 C30.06223 57.99065 28.67354 58.87643 26.89999 59.58225 C25.12643 60.28807 23.50885 60.59869 21.6 60.6 C21.2 60.6 20.8 60.6 20.4 60.6 C16.42506 60.59449 13.03422 59.1872 10.22351 56.37649 C7.4128 53.56578 6.00551 50.17494 6 46.2 zM36 19.8 C36 28.6 36 37.4 36 46.2 C35.99781 47.07968 35.93068 47.82281 35.77518 48.68864 C35.61968 49.55448 35.42404 50.27453 35.12 51.1 C26.93 37.17333 18.74 23.24667 10.55 9.32 C11.93777 8.00935 13.32646 7.12357 15.10001 6.41775 C16.87357 5.71193 18.49115 5.40131 20.4 5.4 C20.8 5.4 21.2 5.4 21.6 5.4 C25.57494 5.40551 28.96578 6.8128 31.77649 9.62351 C34.5872 12.43422 35.99449 15.82506 36 19.8 z" />
<glyph unicode="1" horiz-adv-x="50" d="M42 0 L0 0 L0 6 L18 6 L18 60 L0 60 L0 66 L24 66 L24 6 L42 6 C42 4 42 2 42 0 z" />
<glyph unicode="2" horiz-adv-x="50" d="M42 6 L42 0 L0 0 L0 15.6 C0.00551 21.2318 1.99859 26.03685 5.98087 30.01913 C9.96315 34.00141 14.7682 35.99449 20.4 36 C22.2 36 24 36 25.8 36 C28.61514 36.0055 31.01604 37.00274 33.00665 38.99335 C34.99726 40.98396 35.9945 43.38486 36 46.2 C35.99449 50.17494 34.5872 53.56578 31.77649 56.37649 C28.96578 59.1872 25.57494 60.59449 21.6 60.6 C21.2 60.6 20.8 60.6 20.4 60.6 C16.42506 60.59449 13.03422 59.1872 10.22351 56.37649 C7.4128 53.56578 6.00551 50.17494 6 46.2 C4 46.2 2 46.2 0 46.2 C0.00551 51.8318 1.99859 56.63685 5.98087 60.61913 C9.96315 64.60141 14.7682 66.59449 20.4 66.6 C20.8 66.6 21.2 66.6 21.6 66.6 C27.2318 66.59449 32.03685 64.60141 36.01913 60.61913 C40.00141 56.63685 41.99449 51.8318 42 46.2 C41.99449 41.728 40.41147 37.9129 37.24928 34.75072 C34.0871 31.58853 30.272 30.00551 25.8 30 C24 30 22.2 30 20.4 30 C16.42506 29.99449 13.03422 28.5872 10.22351 25.77649 C7.4128 22.96578 6.00551 19.57494 6 15.6 C6 12.4 6 9.2 6 6 C18 6 30 6 42 6 z" />
<glyph unicode="3" horiz-adv-x="49.840000000000003" d="M35.85913 5.38087 C31.87685 1.39859 27.0718 -0.59449 21.44 -0.6 C21.10667 -0.6 20.77333 -0.6 20.44 -0.6 C14.80117 -0.60553 9.98618 1.38339 5.99502 5.36673 C2.00386 9.35008 0.00552 14.16117 0 19.8 C2 19.8 4 19.8 6 19.8 C6.00551 15.82506 7.4128 12.43422 10.22351 9.62351 C13.03422 6.8128 16.42506 5.40551 20.4 5.4 C20.73333 5.4 21.06667 5.4 21.4 5.4 C25.37494 5.40551 28.76578 6.8128 31.57649 9.62351 C34.3872 12.43422 35.79449 15.82506 35.8 19.8 C35.79728 22.60889 34.80601 25.0054 32.82373 26.99548 C30.84146 28.98557 28.44885 29.98625 25.64 30 C23.86667 30 22.09333 30 20.32 30 L20.32 36 L22.64 36 C25.86936 36.00551 28.6238 37.14919 30.90731 39.43269 C33.19081 41.7162 34.33449 44.47064 34.34 47.7 C34.33724 51.26148 33.0771 54.3004 30.55875 56.81875 C28.0404 59.3371 25.00148 60.59724 21.44 60.6 C21.10667 60.6 20.77333 60.6 20.44 60.6 C16.87224 60.60553 13.82501 59.34885 11.29832 56.82997 C8.77163 54.31108 7.50552 51.26776 7.5 47.7 C7.5 47.2 7.5 46.7 7.5 46.2 L1.5 46.2 L1.5 47.7 C1.50551 52.91758 3.35214 57.36908 7.04153 61.05847 C10.73092 64.74786 15.18242 66.59449 20.4 66.6 C20.73333 66.6 21.06667 66.6 21.4 66.6 C26.61758 66.59449 31.06908 64.74786 34.75847 61.05847 C38.44786 57.36908 40.29449 52.91758 40.3 47.7 C40.30023 44.90766 39.7587 42.53776 38.5457 40.02265 C37.3327 37.50754 35.81529 35.6083 33.63 33.87 C36.23891 32.38837 38.11735 30.5318 39.62945 27.94043 C41.14154 25.34906 41.83367 22.80026 41.84 19.8 C41.83449 14.1682 39.84141 9.36315 35.85913 5.38087 z" />
<glyph unicode="4" horiz-adv-x="50" d="M42 0 L36 0 L36 16.8 L20.4 16.8 C14.7682 16.80551 9.96315 18.79859 5.98087 22.78087 C1.99859 26.76315 0.00551 31.5682 0 37.2 C0 46.8 0 56.4 0 66 L6 66 L6 37.2 C6.00551 33.22506 7.4128 29.83422 10.22351 27.02351 C13.03422 24.2128 16.42506 22.80551 20.4 22.8 C25.6 22.8 30.8 22.8 36 22.8 L36 66 L42 66 C42 44 42 22 42 0 z" />
<glyph unicode="5" horiz-adv-x="50" d="M36.01913 5.38087 C32.03685 1.39859 27.2318 -0.59449 21.6 -0.6 C21.2 -0.6 20.8 -0.6 20.4 -0.6 C14.7682 -0.59449 9.96315 1.39859 5.98087 5.38087 C1.99859 9.36315 0.00551 14.1682 0 19.8 C2 19.8 4 19.8 6 19.8 C6.00551 15.82506 7.4128 12.43422 10.22351 9.62351 C13.03422 6.8128 16.42506 5.40551 20.4 5.4 C20.8 5.4 21.2 5.4 21.6 5.4 C25.57494 5.40551 28.96578 6.8128 31.77649 9.62351 C34.5872 12.43422 35.99449 15.82506 36 19.8 C35.9945 22.61514 34.99726 25.01604 33.00665 27.00665 C31.01604 28.99726 28.61514 29.9945 25.8 30 C17.7 30 9.6 30 1.5 30 L1.5 66 L40.5 66 L40.5 60 L7.5 60 L7.5 36 L25.8 36 C30.272 35.99449 34.0871 34.41147 37.24928 31.24928 C40.41147 28.0871 41.99449 24.272 42 19.8 C41.99449 14.1682 40.00141 9.36315 36.01913 5.38087 z" />
<glyph unicode="6" horiz-adv-x="56" d="M25.8 36 C30.272 35.99449 34.0871 34.41147 37.24928 31.24928 C40.41147 28.0871 41.99449 24.272 42 19.8 C41.99449 14.1682 40.00141 9.36315 36.01913 5.38087 C32.03685 1.39859 27.2318 -0.59449 21.6 -0.6 C21.2 -0.6 20.8 -0.6 20.4 -0.6 C14.7682 -0.59449 9.96315 1.39859 5.98087 5.38087 C1.99859 9.36315 0.00551 14.1682 0 19.8 C0 28.6 0 37.4 0 46.2 C0.00551 51.8318 1.99859 56.63685 5.98087 60.61913 C9.96315 64.60141 14.7682 66.59449 20.4 66.6 C20.8 66.6 21.2 66.6 21.6 66.6 C27.2318 66.59449 32.03685 64.60141 36.01913 60.61913 C40.00141 56.63685 41.99449 51.8318 42 46.2 C40 46.2 38 46.2 36 46.2 C35.99449 50.17494 34.5872 53.56578 31.77649 56.37649 C28.96578 59.1872 25.57494 60.59449 21.6 60.6 C21.2 60.6 20.8 60.6 20.4 60.6 C16.42506 60.59449 13.03422 59.1872 10.22351 56.37649 C7.4128 53.56578 6.00551 50.17494 6 46.2 L6 36 C12.6 36 19.2 36 25.8 36 zM21.6 5.4 C25.57494 5.40551 28.96578 6.8128 31.77649 9.62351 C34.5872 12.43422 35.99449 15.82506 36 19.8 C35.9945 22.61514 34.99726 25.01604 33.00665 27.00665 C31.01604 28.99726 28.61514 29.9945 25.8 30 L6 30 C6 26.6 6 23.2 6 19.8 C6.00551 15.82506 7.4128 12.43422 10.22351 9.62351 C13.03422 6.8128 16.42506 5.40551 20.4 5.4 C20.8 5.4 21.2 5.4 21.6 5.4 z" />
<glyph unicode="7" horiz-adv-x="50" d="M42 50.4 C41.99449 44.7682 40.00141 39.96315 36.01913 35.98087 C32.03685 31.99859 27.2318 30.00551 21.6 30 C21.2 30 20.8 30 20.4 30 C16.42506 29.99449 13.03422 28.5872 10.22351 25.77649 C7.4128 22.96578 6.00551 19.57494 6 15.6 C6 10.4 6 5.2 6 0 L0 0 L0 15.6 C0.00551 21.2318 1.99859 26.03685 5.98087 30.01913 C9.96315 34.00141 14.7682 35.99449 20.4 36 C20.8 36 21.2 36 21.6 36 C25.57494 36.00551 28.96578 37.4128 31.77649 40.22351 C34.5872 43.03422 35.99449 46.42506 36 50.4 C36 53.6 36 56.8 36 60 L0 60 L0 66 L42 66 C42 60.8 42 55.6 42 50.4 z" />
<glyph unicode="8" horiz-adv-x="50.028125693676145" d="M32.92406 33.49 C40.18333 29.25699 43.55948 21.03211 41.36776 12.91967 C39.17605 4.80723 32.11736 -0.5985 23.71406 -0.6 C21.91406 -0.6 20.11406 -0.6 18.31406 -0.6 C9.91077 -0.5985 2.85208 4.80723 0.66036 12.91967 C-1.53135 21.03211 1.84479 29.25699 9.10406 33.49 C2.53857 38.22167 -0.09157 46.24594 2.39914 53.94599 C4.88986 61.64604 11.7212 66.60983 19.81406 66.6 C20.61406 66.6 21.41406 66.6 22.21406 66.6 C30.30692 66.60983 37.13827 61.64604 39.62898 53.94599 C42.1197 46.24594 39.48956 38.22167 32.92406 33.49 zM19.81406 60.6 C13.02096 60.6 7.51406 55.0931 7.51406 48.3 C7.51406 41.5069 13.02096 36 19.81406 36 C20.61406 36 21.41406 36 22.21406 36 C29.00717 36 34.51406 41.5069 34.51406 48.3 C34.51406 55.0931 29.00717 60.6 22.21406 60.6 C21.41406 60.6 20.61406 60.6 19.81406 60.6 zM23.71406 5.4 C30.50717 5.4 36.01406 10.9069 36.01406 17.7 C36.01406 24.4931 30.50717 30 23.71406 30 C21.91406 30 20.11406 30 18.31406 30 C11.52096 30 6.01406 24.4931 6.01406 17.7 C6.01406 10.9069 11.52096 5.4 18.31406 5.4 C20.11406 5.4 21.91406 5.4 23.71406 5.4 z" />
<glyph unicode="9" horiz-adv-x="50" d="M21.6 66.6 C27.2318 66.59449 32.03685 64.60141 36.01913 60.61913 C40.00141 56.63685 41.99449 51.8318 42 46.2 C42 37.4 42 28.6 42 19.8 C41.99449 14.1682 40.00141 9.36315 36.01913 5.38087 C32.03685 1.39859 27.2318 -0.59449 21.6 -0.6 C21.2 -0.6 20.8 -0.6 20.4 -0.6 C14.7682 -0.59449 9.96315 1.39859 5.98087 5.38087 C1.99859 9.36315 0.00551 14.1682 0 19.8 C2 19.8 4 19.8 6 19.8 C6.00551 15.82506 7.4128 12.43422 10.22351 9.62351 C13.03422 6.8128 16.42506 5.40551 20.4 5.4 C20.8 5.4 21.2 5.4 21.6 5.4 C25.57494 5.40551 28.96578 6.8128 31.77649 9.62351 C34.5872 12.43422 35.99449 15.82506 36 19.8 L36 30 C29.4 30 22.8 30 16.2 30 C11.728 30.00551 7.9129 31.58853 4.75072 34.75072 C1.58853 37.9129 0.00551 41.728 0 46.2 C0.00551 51.8318 1.99859 56.63685 5.98087 60.61913 C9.96315 64.60141 14.7682 66.59449 20.4 66.6 C20.8 66.6 21.2 66.6 21.6 66.6 zM36 36 C36 39.4 36 42.8 36 46.2 C35.99449 50.17494 34.5872 53.56578 31.77649 56.37649 C28.96578 59.1872 25.57494 60.59449 21.6 60.6 C21.2 60.6 20.8 60.6 20.4 60.6 C16.42506 60.59449 13.03422 59.1872 10.22351 56.37649 C7.4128 53.56578 6.00551 50.17494 6 46.2 C6.0055 43.38486 7.00274 40.98396 8.99335 38.99335 C10.98396 37.00274 13.38486 36.0055 16.2 36 C22.8 36 29.4 36 36 36 z" />
<glyph unicode=":" horiz-adv-x="50" d="M24 30 L18 30 L18 36 L24 36 C24 34 24 32 24 30 zM18 0 L18 6 L24 6 L24 0 C22 0 20 0 18 0 z" />
<glyph unicode=";" horiz-adv-x="50" d="M16.5 -5.74 L12.26 -1.5 L25.5 11.74 L29.74 7.5 C25.32667 3.08667 20.91333 -1.32667 16.5 -5.74 zM22.2 36 L22.2 30 L28.2 30 L28.2 36 C26.2 36 24.2 36 22.2 36 z" />
<glyph unicode="?" horiz-adv-x="50" d="M18 19.8 L18 36 L25.8 36 C28.61514 36.0055 31.01604 37.00274 33.00665 38.99335 C34.99726 40.98396 35.9945 43.38486 36 46.2 C35.99449 50.17494 34.5872 53.56578 31.77649 56.37649 C28.96578 59.1872 25.57494 60.59449 21.6 60.6 C21.2 60.6 20.8 60.6 20.4 60.6 C16.42506 60.59449 13.03422 59.1872 10.22351 56.37649 C7.4128 53.56578 6.00551 50.17494 6 46.2 C4 46.2 2 46.2 0 46.2 C0.00551 51.8318 1.99859 56.63685 5.98087 60.61913 C9.96315 64.60141 14.7682 66.59449 20.4 66.6 C20.8 66.6 21.2 66.6 21.6 66.6 C27.2318 66.59449 32.03685 64.60141 36.01913 60.61913 C40.00141 56.63685 41.99449 51.8318 42 46.2 C41.99449 41.728 40.41147 37.9129 37.24928 34.75072 C34.0871 31.58853 30.272 30.00551 25.8 30 C25.2 30 24.6 30 24 30 L24 19.8 C22 19.8 20 19.8 18 19.8 zM24 6 L24 0 L18 0 L18 6 C20 6 22 6 24 6 z" />
<glyph unicode="@" horiz-adv-x="50" d="M21.6 66.6 C27.2318 66.59449 32.03685 64.60141 36.01913 60.61913 C40.00141 56.63685 41.99449 51.8318 42 46.2 C42 40.1 42 34 42 27.9 C41.99724 24.83557 40.91284 22.22092 38.74596 20.05404 C36.57908 17.88716 33.96443 16.80276 30.9 16.8 C30.5 16.8 30.1 16.8 29.7 16.8 C26.63557 16.80276 24.02092 17.88716 21.85404 20.05404 C19.68716 22.22092 18.60276 24.83557 18.6 27.9 C18.6 31.3 18.6 34.7 18.6 38.1 C18.60551 41.16267 19.69096 43.77484 21.85757 45.9395 C24.02418 48.10416 26.63733 49.18725 29.7 49.19 C30.09 49.19 30.48 49.19 30.87 49.19 C31.78197 49.19196 32.55329 49.10227 33.44048 48.89112 C34.32766 48.67997 35.05669 48.41257 35.87 48 C35.41298 51.62751 33.85475 54.5744 31.11405 56.99436 C28.37334 59.41433 25.25618 60.59567 21.6 60.6 C21.2 60.6 20.8 60.6 20.4 60.6 C16.42506 60.59449 13.03422 59.1872 10.22351 56.37649 C7.4128 53.56578 6.00551 50.17494 6 46.2 C6 37.6 6 29 6 20.4 C6.00551 16.42506 7.4128 13.03422 10.22351 10.22351 C13.03422 7.4128 16.42506 6.00551 20.4 6 L42 6 L42 0 C34.8 0 27.6 0 20.4 0 C14.7682 0.00551 9.96315 1.99859 5.98087 5.98087 C1.99859 9.96315 0.00551 14.7682 0 20.4 C0 29 0 37.6 0 46.2 C0.00551 51.8318 1.99859 56.63685 5.98087 60.61913 C9.96315 64.60141 14.7682 66.59449 20.4 66.6 C20.8 66.6 21.2 66.6 21.6 66.6 zM36 27.9 C36 31.3 36 34.7 36 38.1 C35.99725 39.50757 35.49863 40.70802 34.50333 41.70333 C33.50802 42.69863 32.30757 43.19725 30.9 43.2 C30.5 43.2 30.1 43.2 29.7 43.2 C28.29243 43.19725 27.09198 42.69863 26.09667 41.70333 C25.10137 40.70802 24.60275 39.50757 24.6 38.1 C24.6 34.7 24.6 31.3 24.6 27.9 C24.60275 26.49243 25.10137 25.29198 26.09667 24.29667 C27.09198 23.30137 28.29243 22.80275 29.7 22.8 C30.1 22.8 30.5 22.8 30.9 22.8 C32.30757 22.80275 33.50802 23.30137 34.50333 24.29667 C35.49863 25.29198 35.99725 26.49243 36 27.9 z" />
<glyph unicode="A" horiz-adv-x="100" d="M71.6 66.6 C77.2318 66.59449 82.03685 64.60141 86.01913 60.61913 C90.00141 56.63685 91.99449 51.8318 92 46.2 L92 0 L86 0 L86 30 L6 30 L6 0 L0 0 C0 15.4 0 30.8 0 46.2 C0.00551 51.8318 1.99859 56.63685 5.98087 60.61913 C9.96315 64.60141 14.7682 66.59449 20.4 66.6 C37.46667 66.6 54.53333 66.6 71.6 66.6 zM6 36 L86 36 C86 39.4 86 42.8 86 46.2 C85.99449 50.17494 84.5872 53.56578 81.77649 56.37649 C78.96578 59.1872 75.57494 60.59449 71.6 60.6 C54.53333 60.6 37.46667 60.6 20.4 60.6 C16.42506 60.59449 13.03422 59.1872 10.22351 56.37649 C7.4128 53.56578 6.00551 50.17494 6 46.2 C6 42.8 6 39.4 6 36 z" />
<glyph unicode="B" horiz-adv-x="100.02565169920207" d="M0 0 L0 66 L72.5 66 C80.43164 65.99323 87.11976 61.14247 89.58967 53.60519 C92.05958 46.06792 89.53938 38.19966 83.15 33.5 C90.25689 29.30395 93.53702 21.21884 91.36245 13.25731 C89.18788 5.29578 82.25317 0.00069 74 0 C49.33333 0 24.66667 0 0 0 zM74 6 C80.62742 6 86 11.37258 86 18 C86 24.62742 80.62742 30 74 30 C51.33333 30 28.66667 30 6 30 L6 6 C28.66667 6 51.33333 6 74 6 zM72.5 36 C79.12742 36 84.5 41.37258 84.5 48 C84.5 54.62742 79.12742 60 72.5 60 C50.33333 60 28.16667 60 6 60 L6 36 C28.16667 36 50.33333 36 72.5 36 z" />
<glyph unicode="C" horiz-adv-x="100" d="M20.4 -0.6 C14.7682 -0.59449 9.96315 1.39859 5.98087 5.38087 C1.99859 9.36315 0.00551 14.1682 0 19.8 C0 28.6 0 37.4 0 46.2 C0.00551 51.8318 1.99859 56.63685 5.98087 60.61913 C9.96315 64.60141 14.7682 66.59449 20.4 66.6 C37.46667 66.6 54.53333 66.6 71.6 66.6 C77.2318 66.59449 82.03685 64.60141 86.01913 60.61913 C90.00141 56.63685 91.99449 51.8318 92 46.2 C90 46.2 88 46.2 86 46.2 C85.99449 50.17494 84.5872 53.56578 81.77649 56.37649 C78.96578 59.1872 75.57494 60.59449 71.6 60.6 C54.53333 60.6 37.46667 60.6 20.4 60.6 C16.42506 60.59449 13.03422 59.1872 10.22351 56.37649 C7.4128 53.56578 6.00551 50.17494 6 46.2 C6 37.4 6 28.6 6 19.8 C6.00551 15.82506 7.4128 12.43422 10.22351 9.62351 C13.03422 6.8128 16.42506 5.40551 20.4 5.4 C37.46667 5.4 54.53333 5.4 71.6 5.4 C75.57494 5.40551 78.96578 6.8128 81.77649 9.62351 C84.5872 12.43422 85.99449 15.82506 86 19.8 C88 19.8 90 19.8 92 19.8 C91.99449 14.1682 90.00141 9.36315 86.01913 5.38087 C82.03685 1.39859 77.2318 -0.59449 71.6 -0.6 C54.53333 -0.6 37.46667 -0.6 20.4 -0.6 z" />
<glyph unicode="D" horiz-adv-x="100" d="M0 0 L0 66 L71.6 66 C77.2318 65.99449 82.03685 64.00141 86.01913 60.01913 C90.00141 56.03685 91.99449 51.2318 92 45.6 C92 37.2 92 28.8 92 20.4 C91.99449 14.7682 90.00141 9.96315 86.01913 5.98087 C82.03685 1.99859 77.2318 0.00551 71.6 0 C47.73333 0 23.86667 0 0 0 zM71.6 6 C75.57494 6.00551 78.96578 7.4128 81.77649 10.22351 C84.5872 13.03422 85.99449 16.42506 86 20.4 C86 28.8 86 37.2 86 45.6 C85.99449 49.57494 84.5872 52.96578 81.77649 55.77649 C78.96578 58.5872 75.57494 59.99449 71.6 60 C49.73333 60 27.86667 60 6 60 L6 6 C27.86667 6 49.73333 6 71.6 6 z" />
<glyph unicode="E" horiz-adv-x="100" d="M92 60 L6 60 L6 36 L86 36 L86 30 L6 30 L6 6 L92 6 L92 0 L0 0 L0 30 L0 36 L0 66 L92 66 L92 60 L92 60 z" />
<glyph unicode="F" horiz-adv-x="100" d="M92 60 L6 60 L6 36 L86 36 L86 30 L6 30 L6 0 L0 0 L0 30 L0 36 L0 66 L92 66 L92 60 L92 60 z" />
<glyph unicode="G" horiz-adv-x="100" d="M20.4 -0.6 C14.7682 -0.59449 9.96315 1.39859 5.98087 5.38087 C1.99859 9.36315 0.00551 14.1682 0 19.8 C0 28.6 0 37.4 0 46.2 C0.00551 51.8318 1.99859 56.63685 5.98087 60.61913 C9.96315 64.60141 14.7682 66.59449 20.4 66.6 C37.46667 66.6 54.53333 66.6 71.6 66.6 C77.2318 66.59449 82.03685 64.60141 86.01913 60.61913 C90.00141 56.63685 91.99449 51.8318 92 46.2 C90 46.2 88 46.2 86 46.2 C85.99449 50.17494 84.5872 53.56578 81.77649 56.37649 C78.96578 59.1872 75.57494 60.59449 71.6 60.6 C54.53333 60.6 37.46667 60.6 20.4 60.6 C16.42506 60.59449 13.03422 59.1872 10.22351 56.37649 C7.4128 53.56578 6.00551 50.17494 6 46.2 C6 37.4 6 28.6 6 19.8 C6.00551 15.82506 7.4128 12.43422 10.22351 9.62351 C13.03422 6.8128 16.42506 5.40551 20.4 5.4 C37.46667 5.4 54.53333 5.4 71.6 5.4 C75.57494 5.40551 78.96578 6.8128 81.77649 9.62351 C84.5872 12.43422 85.99449 15.82506 86 19.8 C86 23.2 86 26.6 86 30 L46 30 L46 36 L92 36 L92 19.8 C91.99449 14.1682 90.00141 9.36315 86.01913 5.38087 C82.03685 1.39859 77.2318 -0.59449 71.6 -0.6 C54.53333 -0.6 37.46667 -0.6 20.4 -0.6 z" />
<glyph unicode="H" horiz-adv-x="100" d="M86 66 L92 66 L92 36 L92 30 L92 0 L86 0 L86 30 L6 30 L6 0 L0 0 L0 30 L0 36 L0 66 L6 66 L6 36 L86 36 L86 66 L86 66 z" />
<glyph unicode="I" horiz-adv-x="100" d="M92 60 L49 60 L49 6 L92 6 L92 0 L49 0 L43 0 L0 0 L0 6 L43 6 L43 60 L0 60 L0 66 L92 66 L92 60 L92 60 z" />
<glyph unicode="J" horiz-adv-x="100" d="M20.4 -0.6 C14.7682 -0.59449 9.96315 1.39859 5.98087 5.38087 C1.99859 9.36315 0.00551 14.1682 0 19.8 C0 20.8 0 21.8 0 22.8 L6 22.8 L6 19.8 C6.00551 15.82506 7.4128 12.43422 10.22351 9.62351 C13.03422 6.8128 16.42506 5.40551 20.4 5.4 C37.46667 5.4 54.53333 5.4 71.6 5.4 C75.57494 5.40551 78.96578 6.8128 81.77649 9.62351 C84.5872 12.43422 85.99449 15.82506 86 19.8 C86 33.2 86 46.6 86 60 L43 60 L43 66 L92 66 L92 19.8 C91.99449 14.1682 90.00141 9.36315 86.01913 5.38087 C82.03685 1.39859 77.2318 -0.59449 71.6 -0.6 C54.53333 -0.6 37.46667 -0.6 20.4 -0.6 z" />
<glyph unicode="K" horiz-adv-x="100" d="M83.11 33.5 C85.94497 31.8364 87.97873 29.78235 89.61412 26.931 C91.2495 24.07966 91.99554 21.28704 92 18 L92 0 L86 0 C86 6 86 12 86 18 C86 21.31371 84.82843 24.14214 82.48528 26.48528 C80.14214 28.82843 77.31371 30 74 30 L6 30 L6 0 L0 0 L0 66 L6 66 L6 36 C28.16667 36 50.33333 36 72.5 36 C75.81371 36 78.64214 37.17157 80.98528 39.51472 C83.32843 41.85786 84.5 44.68629 84.5 48 L84.5 66 L90.5 66 C90.5 60 90.5 54 90.5 48 C90.4933 45.03129 89.88536 42.51212 88.53732 39.86711 C87.18928 37.22211 85.50816 35.24989 83.11 33.5 z" />
<glyph unicode="L" horiz-adv-x="100" d="M92 0 L0 0 L0 66 L6 66 L6 6 L92 6 L92 0 L92 0 z" />
<glyph unicode="M" horiz-adv-x="100" d="M92 0 L86 0 L86 55.2 C86 56.69117 85.47279 57.96396 84.41838 59.01838 C83.36396 60.07279 82.09117 60.6 80.6 60.6 C71.86667 60.6 63.13333 60.6 54.4 60.6 C52.90883 60.6 51.63604 60.07279 50.58162 59.01838 C49.52721 57.96396 49 56.69117 49 55.2 C49 43.4 49 31.6 49 19.8 L43 19.8 L43 55.2 C43 56.69117 42.47279 57.96396 41.41838 59.01838 C40.36396 60.07279 39.09117 60.6 37.6 60.6 C28.86667 60.6 20.13333 60.6 11.4 60.6 C9.90883 60.6 8.63604 60.07279 7.58162 59.01838 C6.52721 57.96396 6 56.69117 6 55.2 C6 36.8 6 18.4 6 0 L0 0 L0 55.2 C0.00276 58.34727 1.11645 61.03264 3.34191 63.25809 C5.56736 65.48355 8.25273 66.59724 11.4 66.6 C20.13333 66.6 28.86667 66.6 37.6 66.6 C39.26263 66.59895 40.67259 66.30025 42.19282 65.62701 C43.71305 64.95377 44.88182 64.11046 46 62.88 C47.11818 64.11046 48.28695 64.95377 49.80718 65.62701 C51.32741 66.30025 52.73737 66.59895 54.4 66.6 C63.13333 66.6 71.86667 66.6 80.6 66.6 C83.74727 66.59724 86.43264 65.48355 88.65809 63.25809 C90.88355 61.03264 91.99724 58.34727 92 55.2 C92 36.8 92 18.4 92 0 z" />
<glyph unicode="N" horiz-adv-x="100" d="M86 0 L86 45.6 C85.99449 49.57494 84.5872 52.96578 81.77649 55.77649 C78.96578 58.5872 75.57494 59.99449 71.6 60 C49.73333 60 27.86667 60 6 60 L6 0 L0 0 L0 66 L71.6 66 C77.2318 65.99449 82.03685 64.00141 86.01913 60.01913 C90.00141 56.03685 91.99449 51.2318 92 45.6 C92 30.4 92 15.2 92 0 C90 0 88 0 86 0 z" />
<glyph unicode="O" horiz-adv-x="100" d="M20.4 -0.6 C14.7682 -0.59449 9.96315 1.39859 5.98087 5.38087 C1.99859 9.36315 0.00551 14.1682 0 19.8 C0 28.6 0 37.4 0 46.2 C0.00551 51.8318 1.99859 56.63685 5.98087 60.61913 C9.96315 64.60141 14.7682 66.59449 20.4 66.6 C37.46667 66.6 54.53333 66.6 71.6 66.6 C77.2318 66.59449 82.03685 64.60141 86.01913 60.61913 C90.00141 56.63685 91.99449 51.8318 92 46.2 C92 37.4 92 28.6 92 19.8 C91.99449 14.1682 90.00141 9.36315 86.01913 5.38087 C82.03685 1.39859 77.2318 -0.59449 71.6 -0.6 C54.53333 -0.6 37.46667 -0.6 20.4 -0.6 zM10.22351 56.37649 C7.4128 53.56578 6.00551 50.17494 6 46.2 C6 37.4 6 28.6 6 19.8 C6.00551 15.82506 7.4128 12.43422 10.22351 9.62351 C13.03422 6.8128 16.42506 5.40551 20.4 5.4 C37.46667 5.4 54.53333 5.4 71.6 5.4 C75.57494 5.40551 78.96578 6.8128 81.77649 9.62351 C84.5872 12.43422 85.99449 15.82506 86 19.8 C86 28.6 86 37.4 86 46.2 C85.99449 50.17494 84.5872 53.56578 81.77649 56.37649 C78.96578 59.1872 75.57494 60.59449 71.6 60.6 C54.53333 60.6 37.46667 60.6 20.4 60.6 C16.42506 60.59449 13.03422 59.1872 10.22351 56.37649 z" />
<glyph unicode="P" horiz-adv-x="100" d="M74 66 C83.94113 66 92 57.94113 92 48 C92 38.05887 83.94113 30 74 30 L6 30 L6 0 L0 0 L0 66 C24.66667 66 49.33333 66 74 66 zM74 36 C80.62742 36 86 41.37258 86 48 C86 54.62742 80.62742 60 74 60 L6 60 L6 36 C28.66667 36 51.33333 36 74 36 z" />
<glyph unicode="Q" horiz-adv-x="100" d="M93.24 2.41 L89 -1.84 C87.24 -0.09 85.48 1.66 83.72 3.41 C81.88809 2.0483 80.15078 1.14606 77.98321 0.43068 C75.81563 -0.28469 73.88257 -0.59379 71.6 -0.59 C54.53333 -0.59 37.46667 -0.59 20.4 -0.59 C14.7682 -0.58449 9.96315 1.40859 5.98087 5.39087 C1.99859 9.37315 0.00551 14.1782 0 19.81 C0 28.60667 0 37.40333 0 46.2 C0.00551 51.8318 1.99859 56.63685 5.98087 60.61913 C9.96315 64.60141 14.7682 66.59449 20.4 66.6 C37.46667 66.6 54.53333 66.6 71.6 66.6 C77.2318 66.59449 82.03685 64.60141 86.01913 60.61913 C90.00141 56.63685 91.99449 51.8318 92 46.2 C92 37.40333 92 28.60667 92 19.81 C92.00379 17.5258 91.69472 15.59135 90.97936 13.42204 C90.26401 11.25274 89.36178 9.51389 88 7.68 C89.74667 5.92333 91.49333 4.16667 93.24 2.41 zM71.6 5.41 C73.05479 5.40915 74.28599 5.58831 75.68021 6.00372 C77.07443 6.41914 78.20291 6.94306 79.42 7.74 L67.36 19.76 L71.6 24 C75.62333 20 79.64667 16 83.67 12 C84.46329 13.21702 84.98539 14.34412 85.40071 15.73623 C85.81602 17.12834 85.99681 18.35726 86 19.81 C86 28.60667 86 37.40333 86 46.2 C85.99449 50.17494 84.5872 53.56578 81.77649 56.37649 C78.96578 59.1872 75.57494 60.59449 71.6 60.6 C54.53333 60.6 37.46667 60.6 20.4 60.6 C16.42506 60.59449 13.03422 59.1872 10.22351 56.37649 C7.4128 53.56578 6.00551 50.17494 6 46.2 C6 37.40333 6 28.60667 6 19.81 C6.00551 15.83506 7.4128 12.44422 10.22351 9.63351 C13.03422 6.8228 16.42506 5.41551 20.4 5.41 C37.46667 5.41 54.53333 5.41 71.6 5.41 z" />
<glyph unicode="R" horiz-adv-x="100.0001417075697" d="M83.93 33 C86.53155 31.27929 88.37375 29.26178 89.85154 26.51496 C91.32933 23.76813 91.99772 21.11912 92 18 L92 0 L86 0 C86 6 86 12 86 18 C86 21.31371 84.82843 24.14214 82.48528 26.48528 C80.14214 28.82843 77.31371 30 74 30 L6 30 L6 0 L0 0 L0 66 C24.66667 66 49.33333 66 74 66 C82.08431 65.99108 88.88723 60.92808 91.2167 53.18665 C93.54616 45.44521 90.66694 37.46877 83.93 33 zM71 36 C72 36 73 36 74 36 C80.62742 36 86 41.37258 86 48 C86 54.62742 80.62742 60 74 60 L6 60 L6 36 C27.66667 36 49.33333 36 71 36 z" />
<glyph unicode="S" horiz-adv-x="99.999999999999986" d="M86.63421 4.76579 C83.06197 1.19356 78.7519 -0.59449 73.7 -0.6 C55.23333 -0.6 36.76667 -0.6 18.3 -0.6 C13.2481 -0.59449 8.93803 1.19356 5.36579 4.76579 C1.79356 8.33803 0.00551 12.6481 0 17.7 C2 17.7 4 17.7 6 17.7 C6.00551 14.30496 7.20777 11.40909 9.60843 9.00843 C12.00909 6.60777 14.90496 5.40551 18.3 5.4 C36.76667 5.4 55.23333 5.4 73.7 5.4 C80.4931 5.4 86 10.9069 86 17.7 C86 24.4931 80.4931 30 73.7 30 C55.73333 30 37.76667 30 19.8 30 C9.69319 30 1.5 38.19319 1.5 48.3 C1.5 58.40681 9.69319 66.6 19.8 66.6 C37.26667 66.6 54.73333 66.6 72.2 66.6 C77.2519 66.59449 81.56197 64.80644 85.13421 61.23421 C88.70644 57.66197 90.49449 53.3519 90.5 48.3 C88.5 48.3 86.5 48.3 84.5 48.3 C84.49449 51.69504 83.29223 54.59091 80.89157 56.99157 C78.49091 59.39223 75.59504 60.59449 72.2 60.6 C54.73333 60.6 37.26667 60.6 19.8 60.6 C13.0069 60.6 7.5 55.0931 7.5 48.3 C7.5 41.5069 13.0069 36 19.8 36 C37.76667 36 55.73333 36 73.7 36 C78.7519 35.99449 83.06197 34.20644 86.63421 30.63421 C90.20644 27.06197 91.99449 22.7519 92 17.7 C91.99449 12.6481 90.20644 8.33803 86.63421 4.76579 z" />
<glyph unicode="T" horiz-adv-x="100" d="M49 60 L49 0 L43 0 L43 60 L0 60 L0 66 L92 66 L92 60 C77.66667 60 63.33333 60 49 60 z" />
<glyph unicode="U" horiz-adv-x="100" d="M92 19.8 C91.99449 14.1682 90.00141 9.36315 86.01913 5.38087 C82.03685 1.39859 77.2318 -0.59449 71.6 -0.6 C54.53333 -0.6 37.46667 -0.6 20.4 -0.6 C14.7682 -0.59449 9.96315 1.39859 5.98087 5.38087 C1.99859 9.36315 0.00551 14.1682 0 19.8 C0 35.2 0 50.6 0 66 L6 66 L6 19.8 C6.00551 15.82506 7.4128 12.43422 10.22351 9.62351 C13.03422 6.8128 16.42506 5.40551 20.4 5.4 C37.46667 5.4 54.53333 5.4 71.6 5.4 C75.57494 5.40551 78.96578 6.8128 81.77649 9.62351 C84.5872 12.43422 85.99449 15.82506 86 19.8 C86 35.2 86 50.6 86 66 L92 66 C92 50.6 92 35.2 92 19.8 z" />
<glyph unicode="V" horiz-adv-x="100" d="M92 20.4 C91.99449 14.7682 90.00141 9.96315 86.01913 5.98087 C82.03685 1.99859 77.2318 0.00551 71.6 0 C47.73333 0 23.86667 0 0 0 L0 66 L6 66 L6 6 L71.6 6 C75.57494 6.00551 78.96578 7.4128 81.77649 10.22351 C84.5872 13.03422 85.99449 16.42506 86 20.4 C86 35.6 86 50.8 86 66 L92 66 C92 50.8 92 35.6 92 20.4 z" />
<glyph unicode="W" horiz-adv-x="100" d="M92 10.8 C91.99724 7.65273 90.88355 4.96736 88.65809 2.74191 C86.43264 0.51645 83.74727 -0.59724 80.6 -0.6 C71.86667 -0.6 63.13333 -0.6 54.4 -0.6 C52.73737 -0.59895 51.32741 -0.30025 49.80718 0.37299 C48.28695 1.04623 47.11818 1.88954 46 3.12 C44.88182 1.88954 43.71305 1.04623 42.19282 0.37299 C40.67259 -0.30025 39.26263 -0.59895 37.6 -0.6 C28.86667 -0.6 20.13333 -0.6 11.4 -0.6 C8.25273 -0.59724 5.56736 0.51645 3.34191 2.74191 C1.11645 4.96736 0.00276 7.65273 0 10.8 C0 29.2 0 47.6 0 66 L6 66 L6 10.8 C6 9.30883 6.52721 8.03604 7.58162 6.98162 C8.63604 5.92721 9.90883 5.4 11.4 5.4 C20.13333 5.4 28.86667 5.4 37.6 5.4 C39.09117 5.4 40.36396 5.92721 41.41838 6.98162 C42.47279 8.03604 43 9.30883 43 10.8 C43 22.6 43 34.4 43 46.2 L49 46.2 L49 10.8 C49 9.30883 49.52721 8.03604 50.58162 6.98162 C51.63604 5.92721 52.90883 5.4 54.4 5.4 C63.13333 5.4 71.86667 5.4 80.6 5.4 C82.09117 5.4 83.36396 5.92721 84.41838 6.98162 C85.47279 8.03604 86 9.30883 86 10.8 C86 29.2 86 47.6 86 66 L92 66 C92 47.6 92 29.2 92 10.8 z" />
<glyph unicode="X" horiz-adv-x="100" d="M92 0 L86 0 L86 15.6 C85.99449 19.57494 84.5872 22.96578 81.77649 25.77649 C78.96578 28.5872 75.57494 29.99449 71.6 30 C54.53333 30 37.46667 30 20.4 30 C16.42506 29.99449 13.03422 28.5872 10.22351 25.77649 C7.4128 22.96578 6.00551 19.57494 6 15.6 C6 10.4 6 5.2 6 0 L0 0 L0 15.6 C0.00363 19.3113 0.84143 22.46457 2.68037 25.68823 C4.51931 28.9119 6.8072 31.23797 10 33.13 C7.25902 34.93408 5.31735 37.05408 3.76043 39.94263 C2.20351 42.83117 1.50009 45.61859 1.5 48.9 C1.5 54.6 1.5 60.3 1.5 66 L7.5 66 L7.5 48.9 C7.50551 45.33927 8.76635 42.30198 11.28416 39.78416 C13.80198 37.26635 16.83927 36.00551 20.4 36 C37.46667 36 54.53333 36 71.6 36 C75.16073 36.00551 78.19802 37.26635 80.71584 39.78416 C83.23365 42.30198 84.49449 45.33927 84.5 48.9 C84.5 54.6 84.5 60.3 84.5 66 L90.5 66 L90.5 48.9 C90.49991 45.61859 89.79649 42.83117 88.23957 39.94263 C86.68265 37.05408 84.74098 34.93408 82 33.13 C85.1928 31.23797 87.48069 28.9119 89.31963 25.68823 C91.15857 22.46457 91.99637 19.3113 92 15.6 C92 10.4 92 5.2 92 0 z" />
<glyph unicode="Y" horiz-adv-x="100" d="M92 50.4 C91.99109 45.19276 90.29911 40.75396 86.8396 36.86202 C83.3801 32.97008 79.17028 30.76936 74 30.15 C65.66667 30.15 57.33333 30.15 49 30.15 L49 0 L43 0 L43 30.15 L18 30.15 C12.82972 30.76936 8.6199 32.97008 5.1604 36.86202 C1.70089 40.75396 0.00891 45.19276 0 50.4 C0 55.6 0 60.8 0 66 L6 66 L6 50.4 C6.00275 46.42606 7.40802 43.03509 10.21705 40.22412 C13.02607 37.41314 16.41606 36.00551 20.39 36 C37.46333 36 54.53667 36 71.61 36 C75.58394 36.00551 78.97393 37.41314 81.78295 40.22412 C84.59198 43.03509 85.99725 46.42606 86 50.4 C86 55.6 86 60.8 86 66 L92 66 C92 60.8 92 55.6 92 50.4 z" />
<glyph unicode="Z" horiz-adv-x="100" d="M6 6 L92 6 L92 0 L0 0 L0 15.6 C0.00551 21.2318 1.99859 26.03685 5.98087 30.01913 C9.96315 34.00141 14.7682 35.99449 20.4 36 C37.46667 36 54.53333 36 71.6 36 C75.57494 36.00551 78.96578 37.4128 81.77649 40.22351 C84.5872 43.03422 85.99449 46.42506 86 50.4 C86 53.6 86 56.8 86 60 L0 60 L0 66 L92 66 L92 50.4 C91.99449 44.7682 90.00141 39.96315 86.01913 35.98087 C82.03685 31.99859 77.2318 30.00551 71.6 30 C54.53333 30 37.46667 30 20.4 30 C16.42506 29.99449 13.03422 28.5872 10.22351 25.77649 C7.4128 22.96578 6.00551 19.57494 6 15.6 C6 12.4 6 9.2 6 6 z" />
<glyph unicode="a" horiz-adv-x="50" d="M21.6 66.6 C27.2318 66.59449 32.03685 64.60141 36.01913 60.61913 C40.00141 56.63685 41.99449 51.8318 42 46.2 L42 0 L36 0 L36 30 L6 30 L6 0 L0 0 C0 15.4 0 30.8 0 46.2 C0.00551 51.8318 1.99859 56.63685 5.98087 60.61913 C9.96315 64.60141 14.7682 66.59449 20.4 66.6 C20.8 66.6 21.2 66.6 21.6 66.6 zM6 36 L36 36 C36 39.4 36 42.8 36 46.2 C35.99449 50.17494 34.5872 53.56578 31.77649 56.37649 C28.96578 59.1872 25.57494 60.59449 21.6 60.6 C21.2 60.6 20.8 60.6 20.4 60.6 C16.42506 60.59449 13.03422 59.1872 10.22351 56.37649 C7.4128 53.56578 6.00551 50.17494 6 46.2 C6 42.8 6 39.4 6 36 z" />
<glyph unicode="b" horiz-adv-x="50.025651699202143" d="M0 0 L0 66 L22.5 66 C30.43164 65.99323 37.11976 61.14247 39.58967 53.60519 C42.05958 46.06792 39.53938 38.19966 33.15 33.5 C40.25689 29.30395 43.53702 21.21884 41.36245 13.25731 C39.18788 5.29578 32.25317 0.00069 24 0 C16 0 8 0 0 0 zM24 6 C30.62742 6 36 11.37258 36 18 C36 24.62742 30.62742 30 24 30 C18 30 12 30 6 30 L6 6 C12 6 18 6 24 6 zM22.5 36 C29.12742 36 34.5 41.37258 34.5 48 C34.5 54.62742 29.12742 60 22.5 60 C17 60 11.5 60 6 60 L6 36 C11.5 36 17 36 22.5 36 z" />
<glyph unicode="c" horiz-adv-x="50" d="M20.4 -0.6 C14.7682 -0.59449 9.96315 1.39859 5.98087 5.38087 C1.99859 9.36315 0.00551 14.1682 0 19.8 C0 28.6 0 37.4 0 46.2 C0.00551 51.8318 1.99859 56.63685 5.98087 60.61913 C9.96315 64.60141 14.7682 66.59449 20.4 66.6 C20.8 66.6 21.2 66.6 21.6 66.6 C27.2318 66.59449 32.03685 64.60141 36.01913 60.61913 C40.00141 56.63685 41.99449 51.8318 42 46.2 C40 46.2 38 46.2 36 46.2 C35.99449 50.17494 34.5872 53.56578 31.77649 56.37649 C28.96578 59.1872 25.57494 60.59449 21.6 60.6 C21.2 60.6 20.8 60.6 20.4 60.6 C16.42506 60.59449 13.03422 59.1872 10.22351 56.37649 C7.4128 53.56578 6.00551 50.17494 6 46.2 C6 37.4 6 28.6 6 19.8 C6.00551 15.82506 7.4128 12.43422 10.22351 9.62351 C13.03422 6.8128 16.42506 5.40551 20.4 5.4 C20.8 5.4 21.2 5.4 21.6 5.4 C25.57494 5.40551 28.96578 6.8128 31.77649 9.62351 C34.5872 12.43422 35.99449 15.82506 36 19.8 C38 19.8 40 19.8 42 19.8 C41.99449 14.1682 40.00141 9.36315 36.01913 5.38087 C32.03685 1.39859 27.2318 -0.59449 21.6 -0.6 C21.2 -0.6 20.8 -0.6 20.4 -0.6 z" />
<glyph unicode="d" horiz-adv-x="50" d="M0 0 L0 66 L21.6 66 C27.2318 65.99449 32.03685 64.00141 36.01913 60.01913 C40.00141 56.03685 41.99449 51.2318 42 45.6 C42 37.2 42 28.8 42 20.4 C41.99449 14.7682 40.00141 9.96315 36.01913 5.98087 C32.03685 1.99859 27.2318 0.00551 21.6 0 C14.4 0 7.2 0 0 0 zM21.6 6 C25.57494 6.00551 28.96578 7.4128 31.77649 10.22351 C34.5872 13.03422 35.99449 16.42506 36 20.4 C36 28.8 36 37.2 36 45.6 C35.99449 49.57494 34.5872 52.96578 31.77649 55.77649 C28.96578 58.5872 25.57494 59.99449 21.6 60 C16.4 60 11.2 60 6 60 L6 6 C11.2 6 16.4 6 21.6 6 z" />
<glyph unicode="e" horiz-adv-x="50" d="M42 60 L6 60 L6 36 L36 36 L36 30 L6 30 L6 6 L42 6 L42 0 L0 0 L0 30 L0 36 L0 66 L42 66 L42 60 L42 60 z" />
<glyph unicode="f" horiz-adv-x="50" d="M42 60 L6 60 L6 36 L36 36 L36 30 L6 30 L6 0 L0 0 L0 30 L0 36 L0 66 L42 66 L42 60 L42 60 z" />
<glyph unicode="g" horiz-adv-x="50" d="M20.4 -0.6 C14.7682 -0.59449 9.96315 1.39859 5.98087 5.38087 C1.99859 9.36315 0.00551 14.1682 0 19.8 C0 28.6 0 37.4 0 46.2 C0.00551 51.8318 1.99859 56.63685 5.98087 60.61913 C9.96315 64.60141 14.7682 66.59449 20.4 66.6 C20.8 66.6 21.2 66.6 21.6 66.6 C27.2318 66.59449 32.03685 64.60141 36.01913 60.61913 C40.00141 56.63685 41.99449 51.8318 42 46.2 C40 46.2 38 46.2 36 46.2 C35.99449 50.17494 34.5872 53.56578 31.77649 56.37649 C28.96578 59.1872 25.57494 60.59449 21.6 60.6 C21.2 60.6 20.8 60.6 20.4 60.6 C16.42506 60.59449 13.03422 59.1872 10.22351 56.37649 C7.4128 53.56578 6.00551 50.17494 6 46.2 C6 37.4 6 28.6 6 19.8 C6.00551 15.82506 7.4128 12.43422 10.22351 9.62351 C13.03422 6.8128 16.42506 5.40551 20.4 5.4 C20.8 5.4 21.2 5.4 21.6 5.4 C25.57494 5.40551 28.96578 6.8128 31.77649 9.62351 C34.5872 12.43422 35.99449 15.82506 36 19.8 C36 23.2 36 26.6 36 30 L21 30 L21 36 L42 36 L42 19.8 C41.99449 14.1682 40.00141 9.36315 36.01913 5.38087 C32.03685 1.39859 27.2318 -0.59449 21.6 -0.6 C21.2 -0.6 20.8 -0.6 20.4 -0.6 z" />
<glyph unicode="h" horiz-adv-x="50" d="M36 66 L42 66 L42 36 L42 30 L42 0 L36 0 L36 30 L6 30 L6 0 L0 0 L0 30 L0 36 L0 66 L6 66 L6 36 L36 36 L36 66 L36 66 z" />
<glyph unicode="i" horiz-adv-x="50" d="M42 60 L24 60 L24 6 L42 6 L42 0 L24 0 L18 0 L0 0 L0 6 L18 6 L18 60 L0 60 L0 66 L42 66 L42 60 L42 60 z" />
<glyph unicode="j" horiz-adv-x="50" d="M20.4 -0.6 C14.7682 -0.59449 9.96315 1.39859 5.98087 5.38087 C1.99859 9.36315 0.00551 14.1682 0 19.8 C0 20.8 0 21.8 0 22.8 L6 22.8 L6 19.8 C6.00551 15.82506 7.4128 12.43422 10.22351 9.62351 C13.03422 6.8128 16.42506 5.40551 20.4 5.4 C20.8 5.4 21.2 5.4 21.6 5.4 C25.57494 5.40551 28.96578 6.8128 31.77649 9.62351 C34.5872 12.43422 35.99449 15.82506 36 19.8 C36 33.2 36 46.6 36 60 L18 60 L18 66 L42 66 L42 19.8 C41.99449 14.1682 40.00141 9.36315 36.01913 5.38087 C32.03685 1.39859 27.2318 -0.59449 21.6 -0.6 C21.2 -0.6 20.8 -0.6 20.4 -0.6 z" />
<glyph unicode="k" horiz-adv-x="50" d="M33.11 33.5 C35.94497 31.8364 37.97873 29.78235 39.61412 26.931 C41.2495 24.07966 41.99554 21.28704 42 18 L42 0 L36 0 C36 6 36 12 36 18 C36 21.31371 34.82843 24.14214 32.48528 26.48528 C30.14214 28.82843 27.31371 30 24 30 L6 30 L6 0 L0 0 L0 66 L6 66 L6 36 C11.5 36 17 36 22.5 36 C25.81371 36 28.64214 37.17157 30.98528 39.51472 C33.32843 41.85786 34.5 44.68629 34.5 48 L34.5 66 L40.5 66 C40.5 60 40.5 54 40.5 48 C40.4933 45.03129 39.88536 42.51212 38.53732 39.86711 C37.18928 37.22211 35.50816 35.24989 33.11 33.5 z" />
<glyph unicode="l" horiz-adv-x="50" d="M42 0 L0 0 L0 66 L6 66 L6 6 L42 6 L42 0 L42 0 z" />
<glyph unicode="m" horiz-adv-x="50" d="M42 0 L36 0 L36 55.2 C36 56.69117 35.47279 57.96396 34.41838 59.01838 C33.36396 60.07279 32.09117 60.6 30.6 60.6 C30.2 60.6 29.8 60.6 29.4 60.6 C27.90883 60.6 26.63604 60.07279 25.58162 59.01838 C24.52721 57.96396 24 56.69117 24 55.2 C24 43.4 24 31.6 24 19.8 L18 19.8 L18 55.2 C18 56.69117 17.47279 57.96396 16.41838 59.01838 C15.36396 60.07279 14.09117 60.6 12.6 60.6 C12.2 60.6 11.8 60.6 11.4 60.6 C9.90883 60.6 8.63604 60.07279 7.58162 59.01838 C6.52721 57.96396 6 56.69117 6 55.2 C6 36.8 6 18.4 6 0 L0 0 L0 55.2 C0.00276 58.34727 1.11645 61.03264 3.34191 63.25809 C5.56736 65.48355 8.25273 66.59724 11.4 66.6 C11.8 66.6 12.2 66.6 12.6 66.6 C14.26263 66.59895 15.67259 66.30025 17.19282 65.62701 C18.71305 64.95377 19.88182 64.11046 21 62.88 C22.11818 64.11046 23.28695 64.95377 24.80718 65.62701 C26.32741 66.30025 27.73737 66.59895 29.4 66.6 C29.8 66.6 30.2 66.6 30.6 66.6 C33.74727 66.59724 36.43264 65.48355 38.65809 63.25809 C40.88355 61.03264 41.99724 58.34727 42 55.2 C42 36.8 42 18.4 42 0 z" />
<glyph unicode="n" horiz-adv-x="50" d="M36 0 L36 45.6 C35.99449 49.57494 34.5872 52.96578 31.77649 55.77649 C28.96578 58.5872 25.57494 59.99449 21.6 60 C16.4 60 11.2 60 6 60 L6 0 L0 0 L0 66 L21.6 66 C27.2318 65.99449 32.03685 64.00141 36.01913 60.01913 C40.00141 56.03685 41.99449 51.2318 42 45.6 C42 30.4 42 15.2 42 0 C40 0 38 0 36 0 z" />
<glyph unicode="o" horiz-adv-x="50" d="M20.4 -0.6 C14.7682 -0.59449 9.96315 1.39859 5.98087 5.38087 C1.99859 9.36315 0.00551 14.1682 0 19.8 C0 28.6 0 37.4 0 46.2 C0.00551 51.8318 1.99859 56.63685 5.98087 60.61913 C9.96315 64.60141 14.7682 66.59449 20.4 66.6 C20.8 66.6 21.2 66.6 21.6 66.6 C27.2318 66.59449 32.03685 64.60141 36.01913 60.61913 C40.00141 56.63685 41.99449 51.8318 42 46.2 C42 37.4 42 28.6 42 19.8 C41.99449 14.1682 40.00141 9.36315 36.01913 5.38087 C32.03685 1.39859 27.2318 -0.59449 21.6 -0.6 C21.2 -0.6 20.8 -0.6 20.4 -0.6 zM10.22351 56.37649 C7.4128 53.56578 6.00551 50.17494 6 46.2 C6 37.4 6 28.6 6 19.8 C6.00551 15.82506 7.4128 12.43422 10.22351 9.62351 C13.03422 6.8128 16.42506 5.40551 20.4 5.4 C20.8 5.4 21.2 5.4 21.6 5.4 C25.57494 5.40551 28.96578 6.8128 31.77649 9.62351 C34.5872 12.43422 35.99449 15.82506 36 19.8 C36 28.6 36 37.4 36 46.2 C35.99449 50.17494 34.5872 53.56578 31.77649 56.37649 C28.96578 59.1872 25.57494 60.59449 21.6 60.6 C21.2 60.6 20.8 60.6 20.4 60.6 C16.42506 60.59449 13.03422 59.1872 10.22351 56.37649 z" />
<glyph unicode="p" horiz-adv-x="50" d="M24 66 C33.94113 66 42 57.94113 42 48 C42 38.05887 33.94113 30 24 30 L6 30 L6 0 L0 0 L0 66 C8 66 16 66 24 66 zM24 36 C30.62742 36 36 41.37258 36 48 C36 54.62742 30.62742 60 24 60 L6 60 L6 36 C12 36 18 36 24 36 z" />
<glyph unicode="q" horiz-adv-x="50" d="M43.24 2.41 L39 -1.84 C37.24 -0.09 35.48 1.66 33.72 3.41 C31.88809 2.0483 30.15078 1.14606 27.98321 0.43068 C25.81563 -0.28469 23.88257 -0.59379 21.6 -0.59 C21.2 -0.59 20.8 -0.59 20.4 -0.59 C14.7682 -0.58449 9.96315 1.40859 5.98087 5.39087 C1.99859 9.37315 0.00551 14.1782 0 19.81 C0 28.60667 0 37.40333 0 46.2 C0.00551 51.8318 1.99859 56.63685 5.98087 60.61913 C9.96315 64.60141 14.7682 66.59449 20.4 66.6 C20.8 66.6 21.2 66.6 21.6 66.6 C27.2318 66.59449 32.03685 64.60141 36.01913 60.61913 C40.00141 56.63685 41.99449 51.8318 42 46.2 C42 37.40333 42 28.60667 42 19.81 C42.00379 17.5258 41.69472 15.59135 40.97936 13.42204 C40.26401 11.25274 39.36178 9.51389 38 7.68 C39.74667 5.92333 41.49333 4.16667 43.24 2.41 zM21.6 5.41 C23.05479 5.40915 24.28599 5.58831 25.68021 6.00372 C27.07443 6.41914 28.20291 6.94306 29.42 7.74 L17.36 19.76 L21.6 24 C25.62333 20 29.64667 16 33.67 12 C34.46329 13.21702 34.98539 14.34412 35.40071 15.73623 C35.81602 17.12834 35.99681 18.35726 36 19.81 C36 28.60667 36 37.40333 36 46.2 C35.99449 50.17494 34.5872 53.56578 31.77649 56.37649 C28.96578 59.1872 25.57494 60.59449 21.6 60.6 C21.2 60.6 20.8 60.6 20.4 60.6 C16.42506 60.59449 13.03422 59.1872 10.22351 56.37649 C7.4128 53.56578 6.00551 50.17494 6 46.2 C6 37.40333 6 28.60667 6 19.81 C6.00551 15.83506 7.4128 12.44422 10.22351 9.63351 C13.03422 6.8228 16.42506 5.41551 20.4 5.41 C20.8 5.41 21.2 5.41 21.6 5.41 z" />
<glyph unicode="r" horiz-adv-x="50.000141707569725" d="M33.93 33 C36.53155 31.27929 38.37375 29.26178 39.85154 26.51496 C41.32933 23.76813 41.99772 21.11912 42 18 L42 0 L36 0 C36 6 36 12 36 18 C36 21.31371 34.82843 24.14214 32.48528 26.48528 C30.14214 28.82843 27.31371 30 24 30 L6 30 L6 0 L0 0 L0 66 C8 66 16 66 24 66 C32.08431 65.99108 38.88723 60.92808 41.2167 53.18665 C43.54616 45.44521 40.66694 37.46877 33.93 33 zM21 36 C22 36 23 36 24 36 C30.62742 36 36 41.37258 36 48 C36 54.62742 30.62742 60 24 60 L6 60 L6 36 C11 36 16 36 21 36 z" />
<glyph unicode="s" horiz-adv-x="50" d="M36.63421 4.76579 C33.06197 1.19356 28.7519 -0.59449 23.7 -0.6 C21.9 -0.6 20.1 -0.6 18.3 -0.6 C13.2481 -0.59449 8.93803 1.19356 5.36579 4.76579 C1.79356 8.33803 0.00551 12.6481 0 17.7 C2 17.7 4 17.7 6 17.7 C6.00551 14.30496 7.20777 11.40909 9.60843 9.00843 C12.00909 6.60777 14.90496 5.40551 18.3 5.4 C20.1 5.4 21.9 5.4 23.7 5.4 C30.4931 5.4 36 10.9069 36 17.7 C36 24.4931 30.4931 30 23.7 30 C22.4 30 21.1 30 19.8 30 C9.69319 30 1.5 38.19319 1.5 48.3 C1.5 58.40681 9.69319 66.6 19.8 66.6 C20.6 66.6 21.4 66.6 22.2 66.6 C27.2519 66.59449 31.56197 64.80644 35.13421 61.23421 C38.70644 57.66197 40.49449 53.3519 40.5 48.3 C38.5 48.3 36.5 48.3 34.5 48.3 C34.49449 51.69504 33.29223 54.59091 30.89157 56.99157 C28.49091 59.39223 25.59504 60.59449 22.2 60.6 C21.4 60.6 20.6 60.6 19.8 60.6 C13.0069 60.6 7.5 55.0931 7.5 48.3 C7.5 41.5069 13.0069 36 19.8 36 C21.1 36 22.4 36 23.7 36 C28.7519 35.99449 33.06197 34.20644 36.63421 30.63421 C40.20644 27.06197 41.99449 22.7519 42 17.7 C41.99449 12.6481 40.20644 8.33803 36.63421 4.76579 z" />
<glyph unicode="t" horiz-adv-x="50" d="M24 60 L24 0 L18 0 L18 60 L0 60 L0 66 L42 66 L42 60 C36 60 30 60 24 60 z" />
<glyph unicode="u" horiz-adv-x="50" d="M42 19.8 C41.99449 14.1682 40.00141 9.36315 36.01913 5.38087 C32.03685 1.39859 27.2318 -0.59449 21.6 -0.6 C21.2 -0.6 20.8 -0.6 20.4 -0.6 C14.7682 -0.59449 9.96315 1.39859 5.98087 5.38087 C1.99859 9.36315 0.00551 14.1682 0 19.8 C0 35.2 0 50.6 0 66 L6 66 L6 19.8 C6.00551 15.82506 7.4128 12.43422 10.22351 9.62351 C13.03422 6.8128 16.42506 5.40551 20.4 5.4 C20.8 5.4 21.2 5.4 21.6 5.4 C25.57494 5.40551 28.96578 6.8128 31.77649 9.62351 C34.5872 12.43422 35.99449 15.82506 36 19.8 C36 35.2 36 50.6 36 66 L42 66 C42 50.6 42 35.2 42 19.8 z" />
<glyph unicode="v" horiz-adv-x="50" d="M42 20.4 C41.99449 14.7682 40.00141 9.96315 36.01913 5.98087 C32.03685 1.99859 27.2318 0.00551 21.6 0 C14.4 0 7.2 0 0 0 L0 66 L6 66 L6 6 L21.6 6 C25.57494 6.00551 28.96578 7.4128 31.77649 10.22351 C34.5872 13.03422 35.99449 16.42506 36 20.4 C36 35.6 36 50.8 36 66 L42 66 C42 50.8 42 35.6 42 20.4 z" />
<glyph unicode="w" horiz-adv-x="50" d="M42 10.8 C41.99724 7.65273 40.88355 4.96736 38.65809 2.74191 C36.43264 0.51645 33.74727 -0.59724 30.6 -0.6 C30.2 -0.6 29.8 -0.6 29.4 -0.6 C27.73737 -0.59895 26.32741 -0.30025 24.80718 0.37299 C23.28695 1.04623 22.11818 1.88954 21 3.12 C19.88182 1.88954 18.71305 1.04623 17.19282 0.37299 C15.67259 -0.30025 14.26263 -0.59895 12.6 -0.6 C12.2 -0.6 11.8 -0.6 11.4 -0.6 C8.25273 -0.59724 5.56736 0.51645 3.34191 2.74191 C1.11645 4.96736 0.00276 7.65273 0 10.8 C0 29.2 0 47.6 0 66 L6 66 L6 10.8 C6 9.30883 6.52721 8.03604 7.58162 6.98162 C8.63604 5.92721 9.90883 5.4 11.4 5.4 C11.8 5.4 12.2 5.4 12.6 5.4 C14.09117 5.4 15.36396 5.92721 16.41838 6.98162 C17.47279 8.03604 18 9.30883 18 10.8 C18 22.6 18 34.4 18 46.2 L24 46.2 L24 10.8 C24 9.30883 24.52721 8.03604 25.58162 6.98162 C26.63604 5.92721 27.90883 5.4 29.4 5.4 C29.8 5.4 30.2 5.4 30.6 5.4 C32.09117 5.4 33.36396 5.92721 34.41838 6.98162 C35.47279 8.03604 36 9.30883 36 10.8 C36 29.2 36 47.6 36 66 L42 66 C42 47.6 42 29.2 42 10.8 z" />
<glyph unicode="x" horiz-adv-x="50" d="M42 0 L36 0 L36 15.6 C35.99449 19.57494 34.5872 22.96578 31.77649 25.77649 C28.96578 28.5872 25.57494 29.99449 21.6 30 C21.2 30 20.8 30 20.4 30 C16.42506 29.99449 13.03422 28.5872 10.22351 25.77649 C7.4128 22.96578 6.00551 19.57494 6 15.6 C6 10.4 6 5.2 6 0 L0 0 L0 15.6 C0.00363 19.3113 0.84143 22.46457 2.68037 25.68823 C4.51931 28.9119 6.8072 31.23797 10 33.13 C7.25902 34.93408 5.31735 37.05408 3.76043 39.94263 C2.20351 42.83117 1.50009 45.61859 1.5 48.9 C1.5 54.6 1.5 60.3 1.5 66 L7.5 66 L7.5 48.9 C7.50551 45.33927 8.76635 42.30198 11.28416 39.78416 C13.80198 37.26635 16.83927 36.00551 20.4 36 C20.8 36 21.2 36 21.6 36 C25.16073 36.00551 28.19802 37.26635 30.71584 39.78416 C33.23365 42.30198 34.49449 45.33927 34.5 48.9 C34.5 54.6 34.5 60.3 34.5 66 L40.5 66 L40.5 48.9 C40.49991 45.61859 39.79649 42.83117 38.23957 39.94263 C36.68265 37.05408 34.74098 34.93408 32 33.13 C35.1928 31.23797 37.48069 28.9119 39.31963 25.68823 C41.15857 22.46457 41.99637 19.3113 42 15.6 C42 10.4 42 5.2 42 0 z" />
<glyph unicode="y" horiz-adv-x="50" d="M42 50.4 C41.99109 45.19276 40.29911 40.75396 36.8396 36.86202 C33.3801 32.97008 29.17028 30.76936 24 30.15 C24 20.1 24 10.05 24 0 L18 0 L18 30.15 C12.82972 30.76936 8.6199 32.97008 5.1604 36.86202 C1.70089 40.75396 0.00891 45.19276 0 50.4 C0 55.6 0 60.8 0 66 L6 66 L6 50.4 C6.00275 46.42606 7.40802 43.03509 10.21705 40.22412 C13.02607 37.41314 16.41606 36.00551 20.39 36 C20.79667 36 21.20333 36 21.61 36 C25.58394 36.00551 28.97393 37.41314 31.78295 40.22412 C34.59198 43.03509 35.99725 46.42606 36 50.4 C36 55.6 36 60.8 36 66 L42 66 C42 60.8 42 55.6 42 50.4 z" />
<glyph unicode="z" horiz-adv-x="50" d="M6 6 L42 6 L42 0 L0 0 L0 15.6 C0.00551 21.2318 1.99859 26.03685 5.98087 30.01913 C9.96315 34.00141 14.7682 35.99449 20.4 36 C20.8 36 21.2 36 21.6 36 C25.57494 36.00551 28.96578 37.4128 31.77649 40.22351 C34.5872 43.03422 35.99449 46.42506 36 50.4 C36 53.6 36 56.8 36 60 L0 60 L0 66 L42 66 L42 50.4 C41.99449 44.7682 40.00141 39.96315 36.01913 35.98087 C32.03685 31.99859 27.2318 30.00551 21.6 30 C21.2 30 20.8 30 20.4 30 C16.42506 29.99449 13.03422 28.5872 10.22351 25.77649 C7.4128 22.96578 6.00551 19.57494 6 15.6 C6 12.4 6 9.2 6 6 z" />
<glyph unicode="‐" horiz-adv-x="50" d="M0 36 L42 36 L42 30 L0 30 L0 36 z" />
<glyph unicode="‑" horiz-adv-x="50" d="M0 36 L42 36 L42 30 L0 30 L0 36 z" />
<glyph unicode="‒" horiz-adv-x="50" d="M0 36 L42 36 L42 30 L0 30 L0 36 z" />
<glyph unicode="–" horiz-adv-x="50" d="M0 36 L42 36 L42 30 L0 30 L0 36 z" />
<glyph unicode="—" horiz-adv-x="50" d="M0 36 L42 36 L42 30 L0 30 L0 36 z" />
</font>
</svg>
